<svg xmlns="http://www.w3.org/2000/svg" xmlns:xlink="http://www.w3.org/1999/xlink" fill="none" version="1.1" width="120" height="120" viewBox="0 0 120 120"><g><g transform="matrix(-1,0,0,1,240,0)"><path d="M214.511765,20.163445L217.391907,13.8384736C218.090935,12.3033612,220.25948,12.2697754,221.00571,13.7825046L224.18105,20.219414C224.51791,20.902265,225.21328,21.334609999999998,225.97469,21.334609999999998L238.10779,21.334609999999998C238.91122000000001,21.334609999999998,239.38662,22.234166000000002,238.934,22.897972L232.52451000000002,32.29793C232.15199,32.844254,231.53352,33.171143,230.87228,33.171206L201.08543400000002,33.173998C197.771942,33.174309,195.08599900000002,35.860510000000005,195.08599900000002,39.173998L195.08599900000002,76.101067C195.08599900000002,78.310204,196.876869,80.101067,199.086006,80.101067L229.61288000000002,80.101036C230.71744999999999,80.101036,231.61288000000002,80.996468,231.61288000000002,82.101036L231.61288000000002,89.972832C231.61288000000002,90.839012,231.05531000000002,91.606743,230.23162000000002,91.87471L225.27280000000002,93.487968C224.34055,93.79126,223.76556,94.725586,223.91489,95.694496L225.45123,105.66288C225.63798,106.874565,224.70056,107.967529,223.47457,107.967529L219.434753,107.967529C218.839249,107.967529,218.274719,107.702156,217.89476000000002,107.243622L213.677368,102.15406C213.452042,101.882133,213.302727,101.555389,213.244621,101.207054L211.891602,93.09626C211.730751,92.132019,210.896431,91.425346,209.918861,91.425346L188.559128,91.425346C187.45455900000002,91.425346,186.559128,92.320778,186.559128,93.425346L186.559128,101.979111C186.559128,102.47496,186.374931,102.953133,186.042282,103.320847L180.741577,109.18026C180.344578,109.619102,179.655422,109.619102,179.258423,109.18026L173.95771,103.320847C173.62506100000002,102.953133,173.440865,102.47496,173.440865,101.979111L173.440865,93.425346C173.440865,92.320778,172.545433,91.425346,171.440865,91.425346L150.081087,91.425346C149.103516,91.425346,148.269194,92.132019,148.10834499999999,93.096268L146.754955,101.209541C146.697111,101.556313,146.548882,101.881706,146.325209,102.152931L142.080021,107.300652C141.700092,107.761353,141.13418000000001,108.028183,140.537027,108.028183L136.523888,108.028183C135.298426,108.028183,134.361151,106.936104,134.547029,105.724823L136.086376,95.693558C136.235001,94.725037,135.660048,93.791451,134.728258,93.488312L129.7683754,91.87471C128.9446898,91.606743,128.3871164,90.839012,128.3871164,89.972832L128.3871164,82.101036C128.3871164,80.996468,129.282548,80.101036,130.387118,80.101036L160.918571,80.101067C163.125923,80.101067,164.91604999999998,78.313004,164.918575,76.105652L164.960838,39.181422999999995C164.964634,35.865038,162.277229,33.174559,158.960842,33.174557L129.2217703,33.17454C128.564477,33.17454,127.9491439,32.851578,127.5757732,32.310627L121.0822816,22.902654C120.62442958,22.239303,121.0992641,21.334609999999998,121.90528019999999,21.334609999999998L134.025305,21.334609999999998C134.786722,21.334609999999998,135.482087,20.902265,135.818939,20.219414L138.994282,13.782506C139.740515,12.2697766,141.90906,12.303362400000001,142.608089,13.8384757L145.488228,20.163445C145.813047,20.876769,146.524605,21.334609999999998,147.308403,21.334609999999998L164.129028,21.334609999999998C170.756447,21.334609999999998,176.129032,26.707193,176.129032,33.334612L176.129032,78.101036C176.129032,79.205605,177.024464,80.101036,178.129032,80.101036L181.87096400000001,80.101036C182.97553299999998,80.101036,183.87096400000001,79.205605,183.87096400000001,78.101036L183.87096400000001,33.33461C183.87096400000001,26.707193,189.24354599999998,21.334609999999998,195.87096400000001,21.334609999999998L212.691589,21.334609999999998C213.475388,21.334609999999998,214.18694299999999,20.876769,214.511765,20.163445M201.967773,69.839966L201.967773,45.425293C201.967773,43.216152,203.758636,41.425292999999996,205.967773,41.425292999999996L228.29034000000001,41.425292999999996C230.49948,41.425292999999996,232.29034000000001,43.216152,232.29034000000001,45.425293L232.29034000000001,69.94091800000001C232.29034000000001,71.045486,231.39490999999998,71.94091800000001,230.29034000000001,71.94091800000001L227.40863000000002,71.94091800000001C226.30406,71.94091800000001,225.40863000000002,71.045486,225.40863000000002,69.94091800000001L225.40863000000002,51.139771C225.40863000000002,50.035202,224.51319999999998,49.139771,223.40863000000002,49.139771L210.849487,49.139771C209.74491899999998,49.139771,208.849487,50.035202,208.849487,51.139771L208.849487,63.156895C208.849487,64.276497,209.76850100000001,65.178028,210.88789400000002,65.15652800000001L212.15669300000002,65.13215600000001C213.246094,65.111233,214.118286,64.222126,214.118286,63.132526L214.118286,57.368408C214.118286,56.26384,215.01371799999998,55.368408,216.118286,55.368408L218.139771,55.368408C219.244339,55.368408,220.13977,56.26384,220.13977,57.368408L220.13977,69.839966C220.13977,70.944534,219.244339,71.839966,218.139771,71.839966L203.967773,71.839966C202.863205,71.839966,201.967773,70.944534,201.967773,69.839966M127.70965580000001,69.839966L127.70965580000001,45.425293C127.70965580000001,43.216152,129.5005169,41.425292999999996,131.709656,41.425292999999996L154.032227,41.425292999999996C156.241367,41.425292999999996,158.032227,43.216152,158.032227,45.425293L158.032227,69.839966C158.032227,70.944534,157.136795,71.839966,156.032227,71.839966L141.860229,71.839966C140.755659,71.839966,139.860229,70.944534,139.860229,69.839966L139.860229,57.368408C139.860229,56.26384,140.755659,55.368408,141.860229,55.368408L143.881714,55.368408C144.986284,55.368408,145.881714,56.26384,145.881714,57.368408L145.881714,63.094482C145.881714,64.199051,146.777143,65.094482,147.881714,65.094482L149.150513,65.094482C150.255083,65.094482,151.150513,64.199051,151.150513,63.094482L151.150513,51.139771C151.150513,50.035202,150.255083,49.139771,149.150513,49.139771L136.59137,49.139771C135.4868,49.139771,134.59137,50.035202,134.59137,51.139771L134.59137,69.839966C134.59137,70.944534,133.695939,71.839966,132.59137,71.839966L129.7096558,71.839966C128.6050863,71.839966,127.70965580000001,70.944534,127.70965580000001,69.839966" fill-rule="evenodd" fill="#8DA8FF" fill-opacity="1" style="mix-blend-mode:passthrough"/></g></g></svg>